<?xml version="1.0" standalone="no"?><!DOCTYPE svg PUBLIC "-//W3C//DTD SVG 1.1//EN" "http://www.w3.org/Graphics/SVG/1.1/DTD/svg11.dtd"><svg t="1663485833134" class="icon" viewBox="0 0 1024 1024" version="1.1" xmlns="http://www.w3.org/2000/svg" p-id="1498" xmlns:xlink="http://www.w3.org/1999/xlink" width="200" height="200"><path d="M682.112 188.885333a74.666667 74.666667 0 0 0-105.557333 0l-298.666667 298.666667A74.666667 74.666667 0 0 0 256 540.330667v67.669333c0 41.216 33.450667 74.666667 74.666667 74.666667h67.669333c19.797333 0 38.784-7.850667 52.778667-21.888l298.666666-298.666667a74.666667 74.666667 0 0 0 0-105.557333l-67.669333-67.669334z m-60.330667 45.226667a10.666667 10.666667 0 0 1 15.104 0l67.669334 67.669333a10.666667 10.666667 0 0 1 0 15.104l-298.666667 298.666667a10.666667 10.666667 0 0 1-7.552 3.114667H330.666667a10.666667 10.666667 0 0 1-10.666667-10.666667v-67.669333a10.666667 10.666667 0 0 1 3.114667-7.552l298.666666-298.666667zM245.333333 746.666667a32 32 0 0 0 0 64h533.333334a32 32 0 0 0 0-64H245.333333z" fill="#00AEEC" p-id="1499"></path></svg>