<?xml version="1.0" standalone="no"?><!DOCTYPE svg PUBLIC "-//W3C//DTD SVG 1.1//EN" "http://www.w3.org/Graphics/SVG/1.1/DTD/svg11.dtd"><svg t="1663743197394" class="icon" viewBox="0 0 1024 1024" version="1.1" xmlns="http://www.w3.org/2000/svg" p-id="15254" xmlns:xlink="http://www.w3.org/1999/xlink" width="200" height="200"><path d="M948.429 924.731c-2.46-8.109-4.002-16.502-6.582-24.567-48.391-151.257-148.057-251.827-298.776-301.767-13.726-4.548-27.874-7.663-42.694-10.852 116.843-42.834 185.898-168.401 157.277-292.451-25.574-110.841-122.337-191.856-237.502-194.88-118.3-3.107-220.4 73.21-250.717 186.853-14.685 55.046-11.042 109.374 11.298 161.853 28.16 66.151 76.767 111.652 144.08 138.664-4.912 1.034-8.846 1.739-12.718 2.696-131.402 32.463-229.755 108.08-294.957 226.599-18.699 33.989-31.715 70.273-40.614 108.044-0.846 3.591 0.017 4.229 3.352 4.136 7.161-0.199 14.342-0.304 21.492 0.037 3.833 0.183 5.379-0.903 6.352-4.762 17.117-67.826 48.557-128.318 96.605-179.128C308.262 635.295 436.09 591.203 585.098 615.75c113.252 18.657 202.833 78.216 269.556 171.561 29.623 41.443 50.259 87.253 62.539 136.729 0.996 4.011 2.541 5.29 6.634 5.064 6.978-0.386 13.996-0.238 20.991-0.05 3.392 0.092 4.827-0.314 3.611-4.323zM512.483 573C390.066 572.974 290.991 473.883 291 351.484c0.009-122.39 99.131-221.496 221.52-221.484 122.395 0.012 221.491 99.126 221.48 221.52-0.011 122.398-99.136 221.506-221.517 221.48z" p-id="15255"></path></svg>